<svg width="18" height="20" viewBox="0 0 18 20" fill="none" xmlns="http://www.w3.org/2000/svg">
<path d="M9 0.0760498L9.455 0.30905C11.2158 1.21032 12.7276 2.53119 13.857 4.15505C14.7986 3.7088 15.7943 3.3871 16.819 3.19805L18 2.98005V11C18 13.387 17.0518 15.6762 15.364 17.364C13.6761 19.0518 11.3869 20 9 20C6.61305 20 4.32387 19.0518 2.63604 17.364C0.948211 15.6762 3.55683e-08 13.387 0 11V2.98005L1.18 3.19805C2.221 3.38805 3.215 3.71405 4.143 4.15505C5.27243 2.53119 6.78424 1.21032 8.545 0.30905L9 0.0760498ZM5.878 5.16605C7.10812 6.02865 8.16684 7.1128 9 8.36305C9.83297 7.11208 10.8917 6.02724 12.122 5.16405C11.2916 4.01279 10.2278 3.04952 9 2.33705C7.77214 3.04981 6.70834 4.01343 5.878 5.16505M7.899 10.433C7.01668 8.71923 5.6601 7.29531 3.991 6.33105C3.36107 5.96821 2.69346 5.67515 2 5.45705V11C2 14.29 4.27 17.05 7.329 17.8C7.1097 16.8829 6.99927 15.9431 7 15C7 13.383 7.32 11.841 7.9 10.434M9.454 17.986C11.2283 17.8707 12.8922 17.0845 14.108 15.7871C15.3237 14.4896 16.0002 12.7781 16 11V5.45705C13.9695 6.09562 12.1957 7.36547 10.9367 9.08182C9.6777 10.7982 8.99923 12.8715 9 15C9 16.042 9.159 17.045 9.453 17.987" fill="#32CD32"/>
</svg>
